<?xml version="1.0" standalone="no"?>
<!DOCTYPE svg PUBLIC "-//W3C//DTD SVG 20010904//EN"
 "http://www.w3.org/TR/2001/REC-SVG-20010904/DTD/svg10.dtd">
<svg version="1.0" xmlns="http://www.w3.org/2000/svg"
 width="264.000000pt" height="324.000000pt" viewBox="0 0 264.000000 324.000000"
 preserveAspectRatio="xMidYMid meet">

<g transform="translate(0.000000,324.000000) scale(0.100000,-0.100000)"
fill="#000000" stroke="none">
<path d="M241 3159 c-107 -18 -144 -59 -161 -175 -6 -43 -10 -512 -10 -1246
l0 -1178 205 0 205 0 0 1140 0 1140 380 0 c397 0 521 -8 655 -40 257 -63 441
-254 553 -570 72 -207 97 -392 89 -665 -15 -521 -181 -853 -504 -1011 -156
-77 -217 -86 -650 -91 l-373 -5 0 -165 0 -165 418 5 c454 5 508 11 696 73 518
171 796 623 832 1354 14 289 -43 658 -133 870 -173 403 -466 638 -897 717 -64
12 -203 16 -666 18 -342 2 -608 0 -639 -6z"/>
<path d="M70 290 l0 -160 205 0 205 0 0 160 0 160 -205 0 -205 0 0 -160z"/>
</g>
</svg>
